<?xml version="1.0" encoding="UTF-8" standalone="no"?>
<!DOCTYPE svg PUBLIC "-//W3C//DTD SVG 1.1//EN" "http://www.w3.org/Graphics/SVG/1.1/DTD/svg11.dtd">
<svg xmlns="http://www.w3.org/2000/svg" version="1.1" viewBox="0.00 0.00 500.00 500.00">
<path stroke="#808080" stroke-width="2.00" fill="none" stroke-linecap="butt" vector-effect="non-scaling-stroke" d="
  M 346.03 199.71
  Q 355.88 197.84 365.76 195.92
  C 370.18 195.07 376.25 189.23 379.97 186.45
  C 383.76 183.61 386.90 175.50 389.18 171.15
  Q 389.41 170.70 389.22 170.23
  C 386.46 163.55 384.10 155.34 379.77 149.56
  Q 377.01 145.89 374.29 142.20
  Q 374.04 141.86 373.63 141.94
  L 367.90 142.97
  A 0.58 0.58 0.0 0 1 367.22 142.40
  L 367.31 124.35
  Q 367.32 123.78 367.01 123.30
  L 357.89 109.06
  A 1.15 1.15 0.0 0 0 356.54 108.59
  L 346.94 111.91
  A 0.66 0.66 0.0 0 1 346.14 111.60
  Q 341.89 103.74 337.91 95.71
  Q 336.69 93.25 334.69 91.47
  Q 326.48 84.17 318.10 77.07
  Q 317.71 76.74 317.21 76.72
  L 303.28 76.19
  Q 302.64 76.16 302.69 75.53
  L 303.05 70.69
  A 0.53 0.53 0.0 0 0 302.34 70.15
  L 290.91 74.19
  Q 290.47 74.35 290.09 74.07
  L 289.08 73.31
  Q 288.71 73.04 288.25 73.08
  L 275.30 74.20
  Q 274.07 74.31 274.94 73.43
  L 279.17 69.20
  A 0.40 0.39 -59.0 0 0 279.01 68.54
  L 273.74 66.98
  Q 273.22 66.82 272.81 67.18
  C 268.88 70.69 260.31 79.83 255.54 80.98
  C 249.03 82.55 242.91 83.77 236.72 86.41
  Q 210.71 97.50 184.69 108.64
  Q 182.55 109.56 181.02 111.31
  Q 171.98 121.66 163.00 132.13
  Q 162.67 132.51 162.19 132.66
  L 143.49 138.50
  A 1.75 1.72 -81.2 0 0 142.58 139.18
  Q 136.29 148.52 130.19 158.01
  Q 128.45 160.71 127.65 163.85
  Q 123.96 178.17 120.31 192.55
  Q 120.17 193.07 120.56 193.44
  L 127.05 199.52
  Q 127.40 199.84 127.20 200.28
  L 118.66 218.91
  A 1.31 1.31 0.0 0 0 119.86 220.77
  C 123.36 220.74 127.06 219.79 130.41 220.98
  Q 139.57 224.24 148.70 227.64
  Q 149.24 227.84 149.01 228.37
  L 148.46 229.67
  A 0.92 0.91 46.9 0 0 148.44 230.36
  C 153.14 242.44 158.89 253.34 164.99 264.75
  Q 166.31 267.24 166.67 270.04
  Q 169.47 292.08 172.40 314.12
  Q 173.05 319.01 172.67 323.79
  C 172.22 329.43 172.41 337.13 169.99 342.24
  Q 166.50 349.64 162.89 356.92
  Q 162.55 357.60 163.21 357.96
  L 270.12 416.44
  Q 270.76 416.79 270.46 416.12
  L 264.10 401.93
  Q 263.88 401.45 264.13 400.98
  Q 269.02 391.55 274.18 382.24
  C 275.30 380.22 276.91 379.07 278.61 377.53
  A 1.36 1.32 74.8 0 0 279.04 376.75
  Q 280.48 368.72 284.87 361.82
  Q 285.13 361.41 285.62 361.47
  Q 294.41 362.57 303.17 363.85
  C 309.68 364.80 316.47 363.39 322.94 362.59
  Q 323.37 362.53 323.67 362.23
  L 332.91 352.95
  A 1.56 1.52 -21.0 0 0 333.36 351.97
  L 334.48 335.54
  A 1.05 1.04 75.4 0 1 334.93 334.76
  Q 340.00 331.30 342.48 325.69
  Q 342.71 325.16 342.43 324.66
  L 339.17 318.82
  A 0.56 0.55 -36.9 0 1 339.27 318.15
  C 343.21 314.40 345.64 312.87 345.75 307.05
  C 345.80 304.18 343.74 302.14 342.21 299.81
  Q 341.96 299.44 342.02 298.99
  L 342.65 294.16
  Q 342.70 293.75 343.11 293.75
  L 346.98 293.75
  A 1.37 1.33 23.5 0 0 347.88 293.41
  L 353.97 287.96
  Q 354.38 287.59 354.33 287.04
  Q 353.75 280.87 351.87 274.99
  C 350.06 269.31 346.21 264.23 342.78 259.13
  Q 342.47 258.67 342.74 258.19
  L 344.17 255.65
  Q 344.47 255.11 344.10 254.61
  Q 341.53 251.13 342.17 246.66
  Q 342.22 246.35 342.48 246.18
  Q 346.68 243.48 347.39 238.55
  A 0.96 0.93 -15.8 0 1 347.75 237.93
  L 352.84 234.00
  A 0.90 0.89 72.1 0 0 353.19 233.31
  C 353.45 222.81 349.15 210.19 345.69 200.30
  Q 345.52 199.81 346.03 199.71"
/>
<path fill="#ffffff" d="
  M 0.00 0.00
  L 500.00 0.00
  L 500.00 500.00
  L 0.00 500.00
  L 0.00 0.00
  Z
  M 346.03 199.71
  Q 355.88 197.84 365.76 195.92
  C 370.18 195.07 376.25 189.23 379.97 186.45
  C 383.76 183.61 386.90 175.50 389.18 171.15
  Q 389.41 170.70 389.22 170.23
  C 386.46 163.55 384.10 155.34 379.77 149.56
  Q 377.01 145.89 374.29 142.20
  Q 374.04 141.86 373.63 141.94
  L 367.90 142.97
  A 0.58 0.58 0.0 0 1 367.22 142.40
  L 367.31 124.35
  Q 367.32 123.78 367.01 123.30
  L 357.89 109.06
  A 1.15 1.15 0.0 0 0 356.54 108.59
  L 346.94 111.91
  A 0.66 0.66 0.0 0 1 346.14 111.60
  Q 341.89 103.74 337.91 95.71
  Q 336.69 93.25 334.69 91.47
  Q 326.48 84.17 318.10 77.07
  Q 317.71 76.74 317.21 76.72
  L 303.28 76.19
  Q 302.64 76.16 302.69 75.53
  L 303.05 70.69
  A 0.53 0.53 0.0 0 0 302.34 70.15
  L 290.91 74.19
  Q 290.47 74.35 290.09 74.07
  L 289.08 73.31
  Q 288.71 73.04 288.25 73.08
  L 275.30 74.20
  Q 274.07 74.31 274.94 73.43
  L 279.17 69.20
  A 0.40 0.39 -59.0 0 0 279.01 68.54
  L 273.74 66.98
  Q 273.22 66.82 272.81 67.18
  C 268.88 70.69 260.31 79.83 255.54 80.98
  C 249.03 82.55 242.91 83.77 236.72 86.41
  Q 210.71 97.50 184.69 108.64
  Q 182.55 109.56 181.02 111.31
  Q 171.98 121.66 163.00 132.13
  Q 162.67 132.51 162.19 132.66
  L 143.49 138.50
  A 1.75 1.72 -81.2 0 0 142.58 139.18
  Q 136.29 148.52 130.19 158.01
  Q 128.45 160.71 127.65 163.85
  Q 123.96 178.17 120.31 192.55
  Q 120.17 193.07 120.56 193.44
  L 127.05 199.52
  Q 127.40 199.84 127.20 200.28
  L 118.66 218.91
  A 1.31 1.31 0.0 0 0 119.86 220.77
  C 123.36 220.74 127.06 219.79 130.41 220.98
  Q 139.57 224.24 148.70 227.64
  Q 149.24 227.84 149.01 228.37
  L 148.46 229.67
  A 0.92 0.91 46.9 0 0 148.44 230.36
  C 153.14 242.44 158.89 253.34 164.99 264.75
  Q 166.31 267.24 166.67 270.04
  Q 169.47 292.08 172.40 314.12
  Q 173.05 319.01 172.67 323.79
  C 172.22 329.43 172.41 337.13 169.99 342.24
  Q 166.50 349.64 162.89 356.92
  Q 162.55 357.60 163.21 357.96
  L 270.12 416.44
  Q 270.76 416.79 270.46 416.12
  L 264.10 401.93
  Q 263.88 401.45 264.13 400.98
  Q 269.02 391.55 274.18 382.24
  C 275.30 380.22 276.91 379.07 278.61 377.53
  A 1.36 1.32 74.8 0 0 279.04 376.75
  Q 280.48 368.72 284.87 361.82
  Q 285.13 361.41 285.62 361.47
  Q 294.41 362.57 303.17 363.85
  C 309.68 364.80 316.47 363.39 322.94 362.59
  Q 323.37 362.53 323.67 362.23
  L 332.91 352.95
  A 1.56 1.52 -21.0 0 0 333.36 351.97
  L 334.48 335.54
  A 1.05 1.04 75.4 0 1 334.93 334.76
  Q 340.00 331.30 342.48 325.69
  Q 342.71 325.16 342.43 324.66
  L 339.17 318.82
  A 0.56 0.55 -36.9 0 1 339.27 318.15
  C 343.21 314.40 345.64 312.87 345.75 307.05
  C 345.80 304.18 343.74 302.14 342.21 299.81
  Q 341.96 299.44 342.02 298.99
  L 342.65 294.16
  Q 342.70 293.75 343.11 293.75
  L 346.98 293.75
  A 1.37 1.33 23.5 0 0 347.88 293.41
  L 353.97 287.96
  Q 354.38 287.59 354.33 287.04
  Q 353.75 280.87 351.87 274.99
  C 350.06 269.31 346.21 264.23 342.78 259.13
  Q 342.47 258.67 342.74 258.19
  L 344.17 255.65
  Q 344.47 255.11 344.10 254.61
  Q 341.53 251.13 342.17 246.66
  Q 342.22 246.35 342.48 246.18
  Q 346.68 243.48 347.39 238.55
  A 0.96 0.93 -15.8 0 1 347.75 237.93
  L 352.84 234.00
  A 0.90 0.89 72.1 0 0 353.19 233.31
  C 353.45 222.81 349.15 210.19 345.69 200.30
  Q 345.52 199.81 346.03 199.71
  Z"
/>
<path fill="#000000" d="
  M 345.69 200.30
  C 349.15 210.19 353.45 222.81 353.19 233.31
  A 0.90 0.89 72.1 0 1 352.84 234.00
  L 347.75 237.93
  A 0.96 0.93 -15.8 0 0 347.39 238.55
  Q 346.68 243.48 342.48 246.18
  Q 342.22 246.35 342.17 246.66
  Q 341.53 251.13 344.10 254.61
  Q 344.47 255.11 344.17 255.65
  L 342.74 258.19
  Q 342.47 258.67 342.78 259.13
  C 346.21 264.23 350.06 269.31 351.87 274.99
  Q 353.75 280.87 354.33 287.04
  Q 354.38 287.59 353.97 287.96
  L 347.88 293.41
  A 1.37 1.33 23.5 0 1 346.98 293.75
  L 343.11 293.75
  Q 342.70 293.75 342.65 294.16
  L 342.02 298.99
  Q 341.96 299.44 342.21 299.81
  C 343.74 302.14 345.80 304.18 345.75 307.05
  C 345.64 312.87 343.21 314.40 339.27 318.15
  A 0.56 0.55 -36.9 0 0 339.17 318.82
  L 342.43 324.66
  Q 342.71 325.16 342.48 325.69
  Q 340.00 331.30 334.93 334.76
  A 1.05 1.04 75.4 0 0 334.48 335.54
  L 333.36 351.97
  A 1.56 1.52 -21.0 0 1 332.91 352.95
  L 323.67 362.23
  Q 323.37 362.53 322.94 362.59
  C 316.47 363.39 309.68 364.80 303.17 363.85
  Q 294.41 362.57 285.62 361.47
  Q 285.13 361.41 284.87 361.82
  Q 280.48 368.72 279.04 376.75
  A 1.36 1.32 74.8 0 1 278.61 377.53
  C 276.91 379.07 275.30 380.22 274.18 382.24
  Q 269.02 391.55 264.13 400.98
  Q 263.88 401.45 264.10 401.93
  L 270.46 416.12
  Q 270.76 416.79 270.12 416.44
  L 163.21 357.96
  Q 162.55 357.60 162.89 356.92
  Q 166.50 349.64 169.99 342.24
  C 172.41 337.13 172.22 329.43 172.67 323.79
  Q 173.05 319.01 172.40 314.12
  Q 169.47 292.08 166.67 270.04
  Q 166.31 267.24 164.99 264.75
  C 158.89 253.34 153.14 242.44 148.44 230.36
  A 0.92 0.91 46.9 0 1 148.46 229.67
  L 149.01 228.37
  Q 149.24 227.84 148.70 227.64
  Q 139.57 224.24 130.41 220.98
  C 127.06 219.79 123.36 220.74 119.86 220.77
  A 1.31 1.31 0.0 0 1 118.66 218.91
  L 127.20 200.28
  Q 127.40 199.84 127.05 199.52
  L 120.56 193.44
  Q 120.17 193.07 120.31 192.55
  Q 123.96 178.17 127.65 163.85
  Q 128.45 160.71 130.19 158.01
  Q 136.29 148.52 142.58 139.18
  A 1.75 1.72 -81.2 0 1 143.49 138.50
  L 162.19 132.66
  Q 162.67 132.51 163.00 132.13
  Q 171.98 121.66 181.02 111.31
  Q 182.55 109.56 184.69 108.64
  Q 210.71 97.50 236.72 86.41
  C 242.91 83.77 249.03 82.55 255.54 80.98
  C 260.31 79.83 268.88 70.69 272.81 67.18
  Q 273.22 66.82 273.74 66.98
  L 279.01 68.54
  A 0.40 0.39 -59.0 0 1 279.17 69.20
  L 274.94 73.43
  Q 274.07 74.31 275.30 74.20
  L 288.25 73.08
  Q 288.71 73.04 289.08 73.31
  L 290.09 74.07
  Q 290.47 74.35 290.91 74.19
  L 302.34 70.15
  A 0.53 0.53 0.0 0 1 303.05 70.69
  L 302.69 75.53
  Q 302.64 76.16 303.28 76.19
  L 317.21 76.72
  Q 317.71 76.74 318.10 77.07
  Q 326.48 84.17 334.69 91.47
  Q 336.69 93.25 337.91 95.71
  Q 341.89 103.74 346.14 111.60
  A 0.66 0.66 0.0 0 0 346.94 111.91
  L 356.54 108.59
  A 1.15 1.15 0.0 0 1 357.89 109.06
  L 367.01 123.30
  Q 367.32 123.78 367.31 124.35
  L 367.22 142.40
  A 0.58 0.58 0.0 0 0 367.90 142.97
  L 373.63 141.94
  Q 374.04 141.86 374.29 142.20
  Q 377.01 145.89 379.77 149.56
  C 384.10 155.34 386.46 163.55 389.22 170.23
  Q 389.41 170.70 389.18 171.15
  C 386.90 175.50 383.76 183.61 379.97 186.45
  C 376.25 189.23 370.18 195.07 365.76 195.92
  Q 355.88 197.84 346.03 199.71
  Q 345.52 199.81 345.69 200.30
  Z"
/>
</svg>
