<?xml version="1.0" standalone="no"?>
<!DOCTYPE svg PUBLIC "-//W3C//DTD SVG 20010904//EN"
 "http://www.w3.org/TR/2001/REC-SVG-20010904/DTD/svg10.dtd">
<svg version="1.0" xmlns="http://www.w3.org/2000/svg"
 width="1083.000000pt" height="1083.000000pt" viewBox="0 0 1083.000000 1083.000000"
 preserveAspectRatio="xMidYMid meet">
<metadata>
Created by potrace 1.14, written by Peter Selinger 2001-2017
</metadata>
<g transform="translate(0.000000,1083.000000) scale(0.100000,-0.100000)"
fill="#000000" stroke="none">
<path d="M5158 10815 c-2 -2 -52 -6 -113 -9 -134 -8 -160 -11 -474 -52 -56 -7
-380 -73 -463 -95 -613 -155 -1155 -396 -1703 -758 -116 -76 -416 -303 -471
-355 -6 -6 -37 -33 -69 -61 -223 -191 -456 -433 -634 -655 -42 -52 -86 -106
-98 -120 -13 -14 -23 -28 -23 -32 0 -3 -6 -13 -13 -20 -39 -39 -275 -388 -327
-484 -11 -21 -26 -48 -33 -59 -49 -79 -70 -118 -142 -260 -67 -133 -118 -243
-176 -380 -102 -243 -231 -651 -275 -868 -2 -10 -5 -26 -8 -35 -7 -22 -18 -80
-31 -157 -5 -31 -7 -40 -20 -110 -13 -73 -14 -81 -50 -375 -20 -162 -27 -703
-11 -895 4 -55 9 -122 12 -150 2 -27 6 -66 9 -85 2 -19 7 -53 10 -75 8 -66 26
-189 29 -210 5 -24 25 -136 30 -167 5 -28 31 -139 52 -227 9 -36 17 -72 19
-80 2 -9 10 -38 18 -66 9 -27 23 -77 32 -110 9 -33 24 -82 34 -110 10 -27 28
-81 41 -120 32 -97 125 -335 167 -425 58 -126 186 -384 198 -400 7 -8 28 -44
47 -80 70 -129 162 -273 286 -447 94 -132 243 -323 322 -413 174 -198 405
-429 541 -542 24 -20 55 -46 69 -58 53 -47 224 -182 281 -222 136 -98 192
-136 302 -206 70 -45 130 -82 133 -82 3 0 18 -8 32 -18 55 -38 365 -200 487
-254 33 -15 85 -38 115 -51 408 -181 1048 -354 1450 -392 36 -3 73 -8 82 -11
10 -3 41 -7 70 -9 29 -2 103 -7 163 -11 208 -16 722 -9 880 11 17 2 57 7 90
10 33 3 87 10 120 15 33 5 78 11 100 14 38 5 289 51 330 61 11 2 67 15 125 29
58 13 116 29 130 34 14 5 27 10 30 10 21 0 309 89 380 117 19 7 95 37 169 65
73 28 141 55 150 60 9 5 45 21 81 37 71 31 341 166 405 202 210 120 359 216
525 335 109 78 242 180 276 211 6 6 29 25 52 43 176 144 455 418 607 597 80
95 119 141 135 161 8 11 31 40 51 64 38 48 196 268 240 335 409 621 689 1320
813 2025 17 94 21 127 41 275 4 28 8 61 10 75 2 14 7 54 10 90 2 36 8 101 11
145 15 178 8 698 -11 890 -7 66 -36 304 -40 323 -12 63 -35 193 -40 226 -3 21
-7 42 -10 46 -2 3 -7 22 -10 41 -32 188 -150 573 -258 849 -75 188 -215 483
-294 618 -24 41 -43 76 -43 78 0 7 -221 358 -229 364 -3 3 -21 28 -40 55 -232
339 -563 702 -907 995 -128 109 -122 105 -234 190 -47 36 -87 67 -90 70 -3 3
-25 19 -49 35 -63 43 -81 55 -150 103 -34 23 -64 42 -67 42 -2 0 -26 15 -52
33 -161 112 -598 336 -837 429 -55 21 -113 45 -130 52 -119 53 -611 198 -742
219 -16 3 -46 9 -68 15 -22 6 -60 13 -85 16 -25 3 -60 10 -78 15 -18 5 -33 10
-35 9 -3 0 -120 14 -137 17 -9 2 -43 6 -75 10 -33 4 -69 9 -80 11 -11 2 -58 6
-105 9 -47 4 -98 8 -115 11 -32 5 -642 14 -647 9z"/>
</g>
</svg>
